<svg width="600" height="400" viewBox="0 0 600 400" fill="none" xmlns="http://www.w3.org/2000/svg">
  <rect width="600" height="400" fill="#F8F9FA"/>
  <circle cx="300" cy="200" r="150" fill="#E8F5E9"/>
  <circle cx="300" cy="140" r="50" fill="#4285F4"/>
  <circle cx="220" cy="220" r="40" fill="#EA4335"/>
  <circle cx="380" cy="220" r="40" fill="#FBBC04"/>
  <circle cx="300" cy="280" r="30" fill="#34A853"/>
  <path d="M300 190C316.569 190 330 176.569 330 160C330 143.431 316.569 130 300 130C283.431 130 270 143.431 270 160C270 176.569 283.431 190 300 190Z" fill="white"/>
  <path d="M220 260C236.569 260 250 246.569 250 230C250 213.431 236.569 200 220 200C203.431 200 190 213.431 190 230C190 246.569 203.431 260 220 260Z" fill="white"/>
  <path d="M380 260C396.569 260 410 246.569 410 230C410 213.431 396.569 200 380 200C363.431 200 350 213.431 350 230C350 246.569 363.431 260 380 260Z" fill="white"/>
  <path d="M300 310C316.569 310 330 296.569 330 280C330 263.431 316.569 250 300 250C283.431 250 270 263.431 270 280C270 296.569 283.431 310 300 310Z" fill="white"/>
  <line x1="300" y1="190" x2="300" y2="250" stroke="#4285F4" stroke-width="3"/>
  <line x1="250" y1="230" x2="270" y2="280" stroke="#EA4335" stroke-width="3"/>
  <line x1="350" y1="230" x2="330" y2="280" stroke="#FBBC04" stroke-width="3"/>
  <line x1="250" y1="230" x2="350" y2="230" stroke="#34A853" stroke-width="3"/>
</svg>

